<svg xmlns="http://www.w3.org/2000/svg" viewBox="0 0 50 50">
  <defs>
    <linearGradient id="ring-grad" x1="0%" y1="0%" x2="100%" y2="100%"><stop offset="0%" stop-color="#e879a8"/><stop offset="50%" stop-color="#f59e6b"/><stop offset="100%" stop-color="#e879a8"/></linearGradient>
    <radialGradient id="glow" cx="50%" cy="40%" r="50%"><stop offset="0%" stop-color="rgba(103,232,249,0.25)"/><stop offset="100%" stop-color="transparent"/></radialGradient>
  </defs>
  <circle cx="25" cy="25" r="21" fill="none" stroke="url(#ring-grad)" stroke-width="1.5" opacity="0.7"/>
  <circle cx="25" cy="25" r="18" fill="#0a0a12"/>
  <ellipse cx="25" cy="25" rx="18" ry="18" fill="none" stroke="rgba(255,255,255,0.18)" stroke-width="0.4"/>
  <ellipse cx="25" cy="25" rx="14" ry="18" fill="none" stroke="rgba(255,255,255,0.14)" stroke-width="0.4"/>
  <ellipse cx="25" cy="25" rx="9" ry="18" fill="none" stroke="rgba(255,255,255,0.12)" stroke-width="0.4"/>
  <ellipse cx="25" cy="25" rx="4" ry="18" fill="none" stroke="rgba(255,255,255,0.08)" stroke-width="0.4"/>
  <line x1="7" y1="25" x2="43" y2="25" stroke="rgba(255,255,255,0.15)" stroke-width="0.4"/>
  <line x1="9" y1="18" x2="41" y2="18" stroke="rgba(255,255,255,0.1)" stroke-width="0.4"/>
  <line x1="9" y1="32" x2="41" y2="32" stroke="rgba(255,255,255,0.1)" stroke-width="0.4"/>
  <line x1="12" y1="13" x2="38" y2="13" stroke="rgba(255,255,255,0.06)" stroke-width="0.4"/>
  <line x1="12" y1="37" x2="38" y2="37" stroke="rgba(255,255,255,0.06)" stroke-width="0.4"/>
  <ellipse cx="25" cy="25" rx="24" ry="7" fill="none" stroke="#1a1a2e" stroke-width="2.5" transform="rotate(-25 25 25)"/>
  <ellipse cx="25" cy="25" rx="24" ry="7" fill="none" stroke="rgba(255,255,255,0.2)" stroke-width="0.6" transform="rotate(-25 25 25)"/>
  <circle cx="25" cy="24" r="8" fill="url(#glow)"/>
  <text x="25" y="30" font-family="Arial, sans-serif" font-weight="bold" font-size="18" fill="white" text-anchor="middle" opacity="0.95">C</text>
</svg>
